<svg width="12" height="9" viewBox="0 0 12 9" fill="none" xmlns="http://www.w3.org/2000/svg">
<path d="M10.4211 1.80316H7.26316V2.43474H10.4211C10.6723 2.43474 10.9133 2.53455 11.0909 2.71221C11.2686 2.88988 11.3684 3.13085 11.3684 3.38211V7.17158C11.3684 7.42284 11.2686 7.6638 11.0909 7.84147C10.9133 8.01914 10.6723 8.11895 10.4211 8.11895H1.57895C1.32769 8.11895 1.08672 8.01914 0.909057 7.84147C0.731391 7.6638 0.631579 7.42284 0.631579 7.17158V3.38211C0.631579 3.13085 0.731391 2.88988 0.909057 2.71221C1.08672 2.53455 1.32769 2.43474 1.57895 2.43474H4.60737L3.24947 3.78947L3.69789 4.23789L5.59263 2.34316C5.62223 2.3138 5.64572 2.27887 5.66176 2.24039C5.67779 2.20191 5.68604 2.16064 5.68604 2.11895C5.68604 2.07726 5.67779 2.03598 5.66176 1.9975C5.64572 1.95902 5.62223 1.92409 5.59263 1.89474L3.69789 0L3.24947 0.448421L4.60737 1.80316H1.57895C1.16018 1.80316 0.758573 1.96951 0.462463 2.26562C0.166353 2.56173 0 2.96334 0 3.38211V7.17158C0 7.59034 0.166353 7.99195 0.462463 8.28806C0.758573 8.58417 1.16018 8.75053 1.57895 8.75053H10.4211C10.8398 8.75053 11.2414 8.58417 11.5375 8.28806C11.8336 7.99195 12 7.59034 12 7.17158V3.38211C12 2.96334 11.8336 2.56173 11.5375 2.26562C11.2414 1.96951 10.8398 1.80316 10.4211 1.80316Z" fill="#F24822"/>
</svg>
