<svg width="11" height="13" viewBox="0 0 11 13" fill="none" xmlns="http://www.w3.org/2000/svg">
<path d="M7.815 8.26768V11.241C7.815 11.5551 7.68659 11.8403 7.48016 12.0472C7.27333 12.254 6.98807 12.382 6.67396 12.382H1.14145C0.827337 12.382 0.542076 12.2536 0.335242 12.0472C0.128408 11.8403 0 11.5551 0 11.241V5.25537C0 4.94126 0.128408 4.6556 0.335242 4.44917C0.542076 4.24233 0.827337 4.11433 1.14145 4.11433H3.185V1.14104C3.185 0.82693 3.31341 0.541263 3.51984 0.334836C3.72667 0.128001 4.01193 0 4.32604 0H9.85855C10.1727 0 10.4583 0.128408 10.6648 0.334836C10.8716 0.54167 11 0.82693 11 1.14104V7.12664C11 7.44075 10.8716 7.72601 10.6648 7.93284C10.4583 8.13968 10.1727 8.26768 9.85855 8.26768H7.815ZM3.185 4.72264H1.14145C0.995567 4.72264 0.862283 4.78279 0.765571 4.87909C0.669265 4.9758 0.609125 5.10868 0.609125 5.25497V11.2406C0.609125 11.3864 0.669265 11.5197 0.765571 11.616C0.862283 11.7127 0.995161 11.7725 1.14145 11.7725H6.67396C6.81984 11.7725 6.95312 11.7123 7.04943 11.616C7.14614 11.5197 7.20587 11.3864 7.20587 11.2406V8.26727H4.32564C4.01153 8.26727 3.72627 8.13886 3.51943 7.93243C3.3126 7.7256 3.1846 7.44034 3.1846 7.12623V4.72264H3.185ZM9.85855 0.608312H4.32604C4.18016 0.608312 4.04688 0.668452 3.95057 0.764758C3.85386 0.861064 3.79413 0.994348 3.79413 1.14064V4.41829V7.12664C3.79413 7.27252 3.85427 7.4058 3.95057 7.50211C4.04688 7.59882 4.18016 7.65855 4.32604 7.65855H7.51064H9.85855C10.0044 7.65855 10.1377 7.59841 10.2344 7.50211C10.3307 7.40539 10.3909 7.27252 10.3909 7.12664V1.14104C10.3909 0.994754 10.3307 0.861877 10.2344 0.765164C10.1377 0.668452 10.0048 0.608718 9.85855 0.608718V0.608312Z" fill="#F24822"/>
</svg>
