<svg width="12" height="12" viewBox="0 0 12 12" fill="none" xmlns="http://www.w3.org/2000/svg">
<path d="M5.99999 0.846009C5.89959 0.846009 5.80362 0.885871 5.73276 0.956737C5.66189 1.0276 5.62203 1.12357 5.62203 1.22397V8.00782L3.09599 5.81608C3.01996 5.75038 2.92104 5.71716 2.82065 5.72381C2.72026 5.73119 2.62725 5.77769 2.56155 5.85373C2.42424 6.0117 2.44122 6.25014 2.59919 6.38669L5.73279 9.10398V9.10472C5.73353 9.10472 5.73427 9.10545 5.73501 9.10619L5.76527 9.13203H5.76453C5.78668 9.14827 5.8103 9.16229 5.8354 9.17337C5.84352 9.17853 5.85164 9.18296 5.8605 9.18813C5.99706 9.2494 6.15798 9.22356 6.26946 9.12243L9.20898 6.37643V6.37716C9.36178 6.23469 9.37064 5.99553 9.22891 5.84272C9.16026 5.76964 9.06503 5.72609 8.96538 5.72313H8.96464C8.86425 5.71944 8.76754 5.75635 8.69447 5.825L6.37876 7.98783V1.22382C6.37876 1.01491 6.20897 0.845871 6.00081 0.845871L5.99999 0.846009ZM0.378696 7.54216C0.278303 7.54142 0.181594 7.58128 0.110728 7.65289C0.0398624 7.72375 0 7.81972 0 7.92012V9.50574C0 10.4115 0.743355 11.1549 1.64912 11.1541H10.3509C11.2566 11.1541 12 10.4115 12 9.50574V7.92012C12 7.81972 11.9601 7.72375 11.8893 7.65289C11.8184 7.58202 11.7224 7.54216 11.622 7.54216C11.5216 7.54142 11.4257 7.58128 11.3548 7.65289C11.2832 7.72375 11.2433 7.81972 11.2441 7.92012V9.50574C11.2441 10.0033 10.8484 10.3989 10.3509 10.3989H1.6491C1.15157 10.3989 0.756625 10.004 0.756625 9.50574V7.92012C0.756625 7.81972 0.716763 7.72375 0.645897 7.65289C0.575031 7.58202 0.479097 7.54216 0.378696 7.54216Z" fill="white"/>
</svg>
